<svg width="200" height="200" viewBox="0 0 200 200" fill="none" xmlns="http://www.w3.org/2000/svg">
<path d="M8.55477 138.071C-15.4384 101.957 20.2906 18.2713 79.4043 2.2112C138.518 -13.8489 196.328 134.598 192.851 163.68C189.374 192.762 32.548 174.185 8.55477 138.071Z" fill="#1A3150" stroke="black"/>
<path d="M123.375 127.833V78.2502C123.375 74.3437 120.198 71.1668 116.292 71.1668H109.208V64.0835H102.125V71.1668H80.875V64.0835H73.7917V71.1668H66.7083C62.8019 71.1668 59.625 74.3437 59.625 78.2502V127.833C59.625 131.74 62.8019 134.917 66.7083 134.917H116.292C120.198 134.917 123.375 131.74 123.375 127.833ZM80.875 120.75H73.7917V113.667H80.875V120.75ZM80.875 106.583H73.7917V99.5002H80.875V106.583ZM95.0417 120.75H87.9583V113.667H95.0417V120.75ZM95.0417 106.583H87.9583V99.5002H95.0417V106.583ZM109.208 120.75H102.125V113.667H109.208V120.75ZM109.208 106.583H102.125V99.5002H109.208V106.583ZM116.292 88.8752H66.7083V81.7918H116.292V88.8752Z" fill="#FDCB5A"/>
</svg>

