<svg width="67" height="69" viewBox="0 0 67 69" fill="none" xmlns="http://www.w3.org/2000/svg">
<path d="M62.2143 27.2812H40.6786V5.625C40.6786 2.9676 38.5355 0.8125 35.8929 0.8125H31.1071C28.4645 0.8125 26.3214 2.9676 26.3214 5.625V27.2812H4.78571C2.1431 27.2812 0 29.4363 0 32.0938V36.9062C0 39.5637 2.1431 41.7188 4.78571 41.7188H26.3214V63.375C26.3214 66.0324 28.4645 68.1875 31.1071 68.1875H35.8929C38.5355 68.1875 40.6786 66.0324 40.6786 63.375V41.7188H62.2143C64.8569 41.7188 67 39.5637 67 36.9062V32.0938C67 29.4363 64.8569 27.2812 62.2143 27.2812Z" fill="#BABABA"/>
</svg>
