<svg width="200" height="200" viewBox="10 40 215 179" fill="none" xmlns="http://www.w3.org/2000/svg">
<path d="M191.498 47.8339C229.583 68.5561 237.086 159.24 192.322 201.055C147.558 242.871 27.0959 138.623 16.5845 111.285C6.07305 83.9473 153.413 27.1117 191.498 47.8339Z" fill="#1A3150" stroke="black"/>
<path d="M173.875 148.167H181.292V155.583H99.7085V148.167H107.125V85.1248C107.125 84.1413 107.516 83.1981 108.211 82.5026C108.907 81.8072 109.85 81.4165 110.833 81.4165H170.167C171.15 81.4165 172.094 81.8072 172.789 82.5026C173.484 83.1981 173.875 84.1413 173.875 85.1248V148.167ZM136.792 103.667H129.375V111.083H136.792V118.5H144.208V111.083H151.625V103.667H144.208V96.2498H136.792V103.667ZM147.917 148.167H155.333V125.917H125.667V148.167H133.083V133.333H147.917V148.167Z" fill="#FDCB5A"/>
</svg>

