<svg width="447" height="419" viewBox="0 0 447 419" fill="none" xmlns="http://www.w3.org/2000/svg" xmlns:xlink="http://www.w3.org/1999/xlink">
<path d="M49.2645 323.499C23.3783 285.77 47.4929 241.669 82.8612 218.553C118.23 195.437 99.4524 140.001 134.399 107.232C207.285 38.8886 320.648 102.205 387.621 143.82C454.595 185.435 369.157 253.32 335.284 325.25C301.41 397.179 239.844 361.544 154.078 390.598C68.3111 419.651 81.6222 370.661 49.2645 323.499Z" fill="#FDCB5A"/>
<path d="M15.6682 245.621C-1.53175 203.221 31.4729 165.312 70.9731 150.312C110.473 135.312 104.012 77.1396 145.168 52.6209C231.007 1.48344 328.168 87.6209 384.668 142.621C441.168 197.621 343.168 245.621 294.668 308.621C246.168 371.621 193.668 323.621 103.668 333.621C13.6683 343.621 37.1682 298.621 15.6682 245.621Z" fill="#1A3150"/>
<rect x="97" width="202" height="344" fill="url(#pattern0)"/>
<defs>
<pattern id="pattern0" patternContentUnits="objectBoundingBox" width="1" height="1">
<use xlink:href="#image0" transform="translate(-0.485149 -0.369186) scale(0.00071671 0.000420859)"/>
</pattern>
</defs>
</svg>
