<svg width="200" height="200" viewBox="75 100 210 160" fill="none" xmlns="http://www.w3.org/2000/svg">
<path d="M152.75 263.233C109.409 262.048 61.5742 184.641 82.4914 127.067C103.409 69.4923 258.058 107.731 279.829 127.323C301.601 146.915 196.091 264.418 152.75 263.233Z" fill="#1A3150" stroke="black"/>
<path d="M194.125 179.794C189.188 170.413 184.25 171.894 178.819 171.4C179.313 172.881 179.313 174.363 179.313 176.338C187.213 178.313 189.188 187.694 189.188 193.125V198.062H179.313V193.125H184.25C184.25 193.125 184.25 180.781 176.844 180.781C169.438 180.781 169.438 192.631 169.438 193.125H174.375V198.062H164.5V193.125C164.5 187.694 166.475 177.819 174.375 176.338C174.375 173.375 173.882 170.906 173.388 169.919C172.4 169.425 171.413 168.438 171.413 166.956C171.413 163.994 175.363 164.981 178.325 159.55C178.325 159.55 182.769 148.194 181.288 138.319H176.35C176.35 137.331 176.844 136.838 176.844 135.85C176.844 134.863 176.844 134.369 176.35 133.381H180.3C178.819 128.444 173.882 124 164.5 124C155.119 124 150.182 128.444 148.207 133.875H152.157C152.157 134.863 151.663 135.356 151.663 136.344C151.663 137.331 151.663 137.825 152.157 138.812H147.219C146.232 148.688 150.182 160.044 150.182 160.044C153.144 164.981 157.094 163.994 157.094 167.45C157.094 169.919 154.625 170.906 151.663 171.4C150.675 172.388 149.688 174.362 149.688 178.312V184.237C152.65 185.225 154.625 188.188 154.625 191.15C154.625 194.606 151.169 198.062 147.219 198.062C143.269 198.062 139.813 194.606 139.813 190.656C139.813 187.2 141.788 184.731 144.75 183.744V177.819C144.75 175.35 145.244 173.375 145.738 171.4C142.282 171.894 138.332 173.375 134.875 179.794C131.913 185.225 130.432 203 130.432 203H198.075C198.569 203 197.088 185.225 194.125 179.794ZM157.094 136.344C157.094 132.394 160.55 128.938 164.5 128.938C168.45 128.938 171.907 132.394 171.907 136.344C171.907 140.294 168.45 143.75 164.5 143.75C160.55 143.75 157.094 140.294 157.094 136.344Z" fill="#FDCB5A"/>
</svg>
